<svg xmlns="http://www.w3.org/2000/svg" version="1.1" xmlns:xlink="http://www.w3.org/1999/xlink" width="256" height="256"><svg version="1.2" xmlns="http://www.w3.org/2000/svg" viewBox="0 0 184 184" width="256" height="256"><style>.a{fill:#161a20;stroke:#fff;stroke-miterlimit:100;stroke-width:9.3}.b{fill:#8f6433}.c{fill:#7ea43f}.d{fill:#fff}.e{fill:#fd2429}.f{fill:#fec537}</style><path fill-rule="evenodd" class="a" d="m92 178.5c-47.9 0-86.5-38.6-86.5-86.5 0-47.9 38.6-86.5 86.5-86.5 47.9 0 86.5 38.6 86.5 86.5 0 47.9-38.6 86.5-86.5 86.5z"></path><path class="b" d="m42.3 130.5c-1.5-10.9-16.9-4 13.1-4-2.6 3.1-2.7 17 0.7 24.9 3.3 3.3-8.7 7.5-11.8 2.1 3.6-5.1 1.3-21.4-2-23z"></path><path class="c" d="m29 131c0.5-10.8 13.1-56.7 16.7-55 3.5 1.7 22.1 40.1 17.6 47.7-4.5 7.6-34.8 19-34.3 7.3z"></path><path class="b" d="m137.1 135.7c0 0 6.3-2.8 10.2 1.2-4.9 3.5-3.4 18.1-3.4 18.1 0 0-39.8-2.6-9.8-2.6 5-5 3-16.7 3-16.7z"></path><path class="c" d="m156.1 135.1c-0.3-8.9-10.2-46.1-13-44.4-2.7 1.6-17.2 34.5-13.7 40.5 3.5 6 27.1 13.5 26.7 3.9z"></path><path class="d" d="m47.5 169.3c-8-6.7-15.7-11.3-16-12-0.7-1.8 3.4-2.1 5.1-3.1 15.8-9 34.2-14.2 53.9-14.2 20.8 0 40.2 5.8 56.6 15.8 1.5 0.8 3.7 4.2 4.3 2.7 1.4-4.4 5.4-7.1-5.4 3-25 23.3-81.8 21.7-98.5 7.8z"></path><path class="e" d="m120.6 148.7c-4.7 21.5-52.4 28.6-51.6-4.2 0.5-22.3 24.1-25.2 5.4-47.9 32.5 0.8 51.4 28.1 46.2 52.1z"></path><path class="f" d="m107.7 156.8c-5.7 11.2-33.1 8.5-28-9.6 3.4-12.3 16.9-10.6 9.7-25.8 17.9 5.1 24.6 22.8 18.3 35.4z"></path><path class="f" d="m90.5 61.4c-10.8 0-19.5-6.7-19.5-14.9 0-8.2 8.7-14.9 19.5-14.9 10.8 0 19.5 6.7 19.5 14.9 0 8.2-8.7 14.9-19.5 14.9z"></path><path class="d" d="m69.8 46.7l-4 26.5c0 0 6.7 4.8 18.7 3.1-4.3 8.6-2.7 8.8-2.7 8.8h22.4l-4.2-8.6c0 0 10 1.2 17-4.1-2.6-12-6.1-26.4-6.1-26.4 0 0-16.5 8.1-41.1 0.7z"></path></svg><style>@media (prefers-color-scheme: light) { :root { filter: none; } }
@media (prefers-color-scheme: dark) { :root { filter: none; } }
</style></svg>